<?xml version="1.0" encoding="utf-8"?>
<!-- Generator: Adobe Illustrator 16.0.3, SVG Export Plug-In . SVG Version: 6.00 Build 0)  -->
<!DOCTYPE svg PUBLIC "-//W3C//DTD SVG 1.1//EN" "http://www.w3.org/Graphics/SVG/1.1/DTD/svg11.dtd">
<svg version="1.1" id="Layer_1" xmlns="http://www.w3.org/2000/svg" xmlns:xlink="http://www.w3.org/1999/xlink" x="0px" y="0px"
	 width="512px" height="512px" viewBox="0 0 512 512" enable-background="new 0 0 512 512" xml:space="preserve">
<g>
	<path fill="#FFFFFF" d="M305.166,413.593c11.556-21.39,18.096-45.695,18.096-71.512c0-85.925-72.358-155.661-161.611-155.661
		c-20.855,0-40.79,3.814-59.027,10.775c1.816,15.552,5.264,31.079,10.153,46.357c12.174-4.761,25.466-7.388,39.492-7.388
		c57.435,0,104.006,44.409,104.006,99.103c0,21.005-6.841,40.469-18.488,56.51C258.589,401.918,281.596,409.229,305.166,413.593"/>
	<path fill="#EE3124" d="M152.269,236.165c-14.025,0-27.318,2.626-39.491,7.387c16.347,50.761,49.369,98.216,95.504,130.898
		c9.1,6.489,19.027,12.227,29.504,17.327c11.647-16.041,18.488-35.506,18.488-56.51
		C256.274,280.574,209.704,236.165,152.269,236.165"/>
	<path fill="#EE3124" d="M390.807,290.148c38.178-29.256,134.565-92.478,119.637-118.133
		c-12.064-20.677-64.777,4.302-124.272,36.659c-46.743,25.491-36.645-5.291-6.951-50.231c26.189-39.557,65.551-92.94,43.628-107.392
		c-25.561-16.805-103.836,76.249-122.153,94.611c-18.278,18.364-35.027,28.255-25.841-22.891
		c12.314-67.986,14.727-103.525-0.564-107.812c-21.39-5.995-34.751,20.698-66.76,95.395c-22.955,53.61-42.983,63.112-45.447,15.019
		c-3.2-86.423-25.166-66.607-33.614-53.321c-23.184,36.518-31.072,80.76-25.845,125.144c18.236-6.962,38.173-10.778,59.027-10.778
		c89.253,0,161.611,69.738,161.611,155.663c0,25.816-6.541,50.122-18.096,71.512c50.961,9.314,104.64,4.838,145.105-15.287
		c6.735-3.341,23.086-13.364,12.896-27.204c-20.33-27.668-56.987-13.154-96.176-24.517
		C332.601,336.618,363.255,311.226,390.807,290.148"/>
	<path fill="#6D6E71" d="M237.787,391.777c-18.843,25.79-50.091,42.708-85.518,42.708c-57.456,0-104.04-44.435-104.04-99.218
		c0-41.429,26.701-76.901,64.547-91.714c-4.89-15.279-8.337-30.806-10.153-46.357C42.529,219.9,0,276.158,0,342.081
		c0,86.013,72.37,155.771,161.651,155.771c62.481,0,116.638-34.253,143.515-84.26C281.596,409.229,258.589,401.918,237.787,391.777"
		/>
</g>
</svg>
