<?xml version="1.0" encoding="utf-8"?>
<!-- Generator: Adobe Illustrator 16.0.3, SVG Export Plug-In . SVG Version: 6.00 Build 0)  -->
<!DOCTYPE svg PUBLIC "-//W3C//DTD SVG 1.1//EN" "http://www.w3.org/Graphics/SVG/1.1/DTD/svg11.dtd">
<svg version="1.1" id="Layer_1" xmlns="http://www.w3.org/2000/svg" xmlns:xlink="http://www.w3.org/1999/xlink" x="0px" y="0px"
	 width="2084.425px" height="512px" viewBox="0 0 2084.425 512" enable-background="new 0 0 2084.425 512" xml:space="preserve">
<g>
	<polygon fill="#FFFFFF" points="1706.254,158.26 1701.934,171.037 1698.793,196.311 1711.42,214.342 1790.564,232.871 
		1824.885,260.477 1836.822,295.544 1827.869,341.43 1828.988,365.679 1878.232,378.362 1909.941,366.052 1913.299,272.414 
		1876.367,198.922 1797.279,156.021 1743.186,152.291 	"/>
	<path fill="#EE3124" d="M1748.309,207.465c-13.094,0-25.5,2.445-36.889,6.889c15.285,47.432,46.143,91.783,89.219,122.304
		c8.533,6.077,17.781,11.438,27.582,16.191c10.893-14.961,17.283-33.182,17.283-52.793
		C1845.504,248.945,1801.975,207.465,1748.309,207.465"/>
	<path fill="#EE3124" d="M1971.209,257.88c35.654-27.313,125.721-86.404,111.758-110.345
		c-11.262-19.361-60.479,4.002-116.105,34.227c-43.678,23.803-34.236-4.932-6.488-46.934c24.49-36.958,61.26-86.844,40.746-100.336
		c-23.873-15.715-97.029,71.248-114.133,88.414c-17.064,17.145-32.709,26.404-24.135-21.402
		c11.498-63.523,13.77-96.74-0.527-100.745c-19.984-5.598-32.477,19.346-62.383,89.146c-21.436,50.094-40.166,58.965-42.453,14.031
		c-2.986-80.746-23.525-62.245-31.393-49.82c-21.688,34.106-29.047,75.461-24.16,116.922c17.043-6.498,35.664-10.066,55.17-10.066
		c83.367,0,150.982,65.168,150.982,145.462c0,24.129-6.09,46.807-16.898,66.789c47.605,8.713,97.76,4.54,135.557-14.261
		c6.309-3.12,21.572-12.496,12.059-25.44c-18.986-25.847-53.236-12.264-89.826-22.896
		C1916.818,301.309,1945.461,277.595,1971.209,257.88"/>
	<path fill="#6D6E71" d="M1828.207,352.849c-17.609,24.104-46.789,39.906-79.887,39.906c-53.682,0-97.219-41.527-97.219-92.699
		c0-38.719,24.945-71.861,60.318-85.714c-4.566-14.266-7.795-28.777-9.484-43.305c-56.139,21.211-95.916,73.794-95.916,135.396
		c0,80.357,67.633,145.522,151.086,145.522c58.354,0,108.955-31.998,134.084-78.733
		C1869.156,369.154,1847.664,362.327,1828.207,352.849"/>
	<path d="M120.194,240.948c0-5.554-4.888-10.226-10.711-10.226H12.466c-5.729,0-10.679,4.672-10.679,10.226
		c0,5.519,4.78,10.069,10.679,10.069h37.227v109.896c0,5.965,5.062,10.865,11.32,10.865c6.235,0,11.246-4.9,11.246-10.865V251.018
		h37.225C115.38,251.018,120.194,246.467,120.194,240.948"/>
	<path d="M152.571,263.584c-29.633,0-52.82,23.942-52.82,54.534v0.424c0,31.093,23.562,54.508,54.811,54.508
		c16.601,0,29.333-4.878,41.237-15.762c2.12-1.832,3.418-4.342,3.418-7.104c0-5.222-4.543-9.443-10.126-9.443
		c-2.306,0-4.45,0.775-6.535,2.429c-8.279,7.379-17.028,10.727-27.578,10.727c-17.005,0-29.454-10.504-32.545-27.062h70.834
		c5.829,0,10.55-4.523,10.55-10.069C203.817,290.297,186.215,263.584,152.571,263.584 M152.185,282.33
		c18.299,0,26.903,13.52,29.154,27.237h-58.906C125.512,293.397,137.326,282.33,152.185,282.33"/>
	<path d="M228.623,224.063c-6.062,0-10.898,4.743-10.898,10.605v126.463c0,5.949,4.836,10.647,11.096,10.647
		c6.209,0,10.914-4.634,10.914-10.647V234.668C239.735,228.806,234.723,224.063,228.623,224.063"/>
	<path d="M316.104,312.484l31.544-29.697c2.132-2.013,4.038-4.353,4.038-8c0-5.612-4.51-10.074-10.333-10.074
		c-3.22,0-5.927,1.237-8.458,3.888l-50.091,48.819v-82.75c0-5.865-4.956-10.607-11.078-10.607c-5.999,0-10.935,4.742-10.935,10.607
		v126.461c0,5.949,4.898,10.625,11.163,10.625c6.191,0,10.85-4.611,10.85-10.625v-17.632l17.725-16.775l33.435,40.356
		c2.605,3.273,5.361,4.676,9.238,4.676c6.079,0,10.679-4.395,10.679-10.1c0-2.586-0.773-4.525-2.721-6.939L316.104,312.484z"/>
	<path d="M412.854,263.597c-32.129,0-57.223,24.02-57.223,54.731v0.402c0,30.456,24.93,54.319,56.782,54.319
		c32.223,0,57.428-23.986,57.428-54.722v-0.364C469.841,287.44,444.789,263.597,412.854,263.597 M377.996,317.964
		c0-19.966,14.838-35.064,34.417-35.064c19.618,0,35.042,15.597,35.042,35.429v0.402c0,19.809-14.936,34.771-34.601,34.771
		c-19.501,0-34.858-15.447-34.858-35.174V317.964z"/>
	<path d="M604.423,263.585c-14.952,0-26.772,5.533-35.994,16.913c-7.342-10.948-19.027-16.913-33.45-16.913
		c-14.32,0-23.547,5.793-29.977,12.525v-0.78c0-5.952-4.941-10.617-11.141-10.617c-6.026,0-10.96,4.728-10.96,10.617v85.801
		c0,5.949,4.935,10.647,11.147,10.647c6.216,0,10.954-4.634,10.954-10.647v-49.835c0-16.211,10.634-28.011,25.351-28.011
		c14.787,0,23.271,9.576,23.271,26.248v51.598c0,5.949,4.753,10.647,10.91,10.647c6.185,0,11.083-4.698,11.083-10.647v-50.458
		c0-16.35,10.07-27.388,24.985-27.388c15.139,0,23.476,9.464,23.476,26.668v51.178c0,5.949,4.894,10.647,11.09,10.647
		c6.084,0,10.924-4.698,10.924-10.647v-54.684C646.093,279.994,630.164,263.585,604.423,263.585"/>
	<path d="M706.813,232.326c-5.521,0-10.215,4.572-10.215,9.979v121.379c0,5.328,4.694,9.912,10.215,9.912
		c5.754,0,10.421-4.456,10.421-9.912V242.305C717.234,236.822,712.566,232.326,706.813,232.326"/>
	<path d="M796.816,266.419c-13.797,0-25.002,4.957-33.356,14.671v-3.73c0-5.485-4.461-9.729-10.193-9.729
		c-5.545,0-10.04,4.356-10.04,9.729v86.513c0,5.502,4.495,9.743,10.258,9.743c5.627,0,9.976-4.194,9.976-9.743v-50.493
		c0-17.068,11.911-28.99,28.941-28.99c16.877,0,26.534,10.119,26.534,27.814v51.669c0,5.502,4.521,9.743,10.228,9.743
		c5.593,0,10.018-4.241,10.018-9.743v-55.291C839.181,282.976,822.547,266.419,796.816,266.419"/>
	<path d="M953.305,226.53c-5.691,0-10.011,4.21-10.011,9.71v47.071c-9.975-11.204-22.681-16.873-37.629-16.873
		c-25.295,0-52.187,18.954-52.187,54.083v0.371c0,34.986,26.892,53.859,52.187,53.859c15.026,0,27.424-5.786,37.629-17.696v6.816
		c0,5.502,4.495,9.724,10.229,9.724c5.627,0,10.024-4.222,10.024-9.724V236.24C963.547,230.849,959.067,226.53,953.305,226.53
		 M943.932,320.338v0.402c0,22.385-18.384,36.278-35.436,36.278c-19.569,0-34.427-15.626-34.427-36.278v-0.402
		c0-21.297,14.213-36.151,34.427-36.151C925.933,284.187,943.932,297.682,943.932,320.338"/>
	<path d="M1035.934,266.438c-31.895,0-56.85,23.829-56.85,54.302v0.358c0,30.162,24.791,53.87,56.439,53.87
		c31.922,0,57.002-23.851,57.002-54.229v-0.402C1092.525,290.096,1067.646,266.438,1035.934,266.438 M999.673,320.338
		c0-20.702,15.409-36.32,35.851-36.32c20.406,0,36.373,16.103,36.373,36.723v0.358c0,20.541-15.475,36.115-35.963,36.115
		c-20.313,0-36.261-16.039-36.261-36.474V320.338z"/>
	<path d="M1161.443,266.419c-13.785,0-24.973,4.957-33.373,14.671v-3.73c0-5.485-4.473-9.729-10.229-9.729
		c-5.496,0-9.994,4.356-9.994,9.729v86.513c0,5.502,4.498,9.743,10.211,9.743c5.768,0,10.012-4.194,10.012-9.743v-50.493
		c0-17.068,11.914-28.99,29.002-28.99c16.83,0,26.508,10.119,26.508,27.814v51.669c0,5.502,4.484,9.743,10.193,9.743
		c5.656,0,10.029-4.241,10.029-9.743v-55.291C1203.803,282.976,1187.166,266.419,1161.443,266.419"/>
	<path d="M1270.105,266.419c-29.398,0-52.363,23.813-52.363,54.103v0.371c0,30.821,23.32,54.076,54.398,54.076
		c16.527,0,29.135-4.799,40.98-15.644c1.961-1.704,3.135-3.997,3.135-6.459c0-4.74-4.1-8.575-9.23-8.575
		c-2.035,0-3.98,0.708-5.904,2.232c-8.59,7.574-17.684,11.05-28.611,11.05c-17.809,0-31.238-11.645-34.08-29.254h72.854
		c5.25,0,9.596-4.12,9.596-9.186C1320.879,292.966,1303.461,266.419,1270.105,266.419 M1238.43,312.919
		c2.811-17.538,15.35-29.46,31.285-29.46c19.648,0,28.617,14.726,30.697,29.46H1238.43z"/>
	<path d="M1376.807,311.4l-0.4-0.086c-12.77-3.727-24.77-7.22-24.77-14.941v-0.355c0-7.262,7.137-12.222,17.785-12.222
		c8.189,0,17.207,2.572,26.115,7.423c0.9,0.436,2.514,1.047,4.611,1.047c5.096,0,9.186-3.843,9.186-8.529
		c0-3.318-1.846-6.299-4.969-8.105c-10.939-5.647-23.395-8.761-34.504-8.761c-22.32,0-37.908,12.61-37.908,30.704v0.408
		c0,20.432,20.961,26.107,36.205,30.243c13.848,3.704,24.346,7.18,24.346,15.383v0.39c0,8.15-7.682,13.575-19.248,13.575
		c-10.617,0-21.34-3.411-31.766-10.193c-1.236-0.968-3.131-1.575-5.191-1.575c-5.02,0-9.146,3.854-9.146,8.586
		c0,3.389,1.959,6.006,3.836,7.235c11.814,8.109,27.297,12.92,41.457,12.92c23.635,0,39.492-12.872,39.492-32.089v-0.348
		C1411.938,321.489,1390.791,315.427,1376.807,311.4"/>
	<path d="M1439.521,267.631c-5.52,0-10.014,4.356-10.014,9.729v86.513c0,5.502,4.494,9.724,10.203,9.724
		c5.705,0,10.029-4.175,10.029-9.724v-86.513C1449.74,271.874,1445.227,267.631,1439.521,267.631"/>
	<path d="M1550.158,278.858c-8.064-7.704-19.982-11.647-35.348-11.647c-12.65,0-23.379,2.108-35.055,6.939
		c-2.639,0.981-5.609,4.021-5.609,8.213c0,4.627,4.154,8.574,9.186,8.574c1.131,0,2.463-0.281,3.686-0.715
		c8.57-3.68,17.092-5.459,26.186-5.459c13.111,0,28.682,4.367,28.682,24.953v0.532c-7.67-1.931-16.777-3.52-29.678-3.52
		c-28.998,0-46.982,13.155-46.982,34.37v0.436c0,21.808,20.781,33.217,41.314,33.217c16.986,0,28.238-6.58,35.346-13.455v3.118
		c0,5.283,4.27,9.181,9.855,9.181c5.596,0,9.793-4.11,9.793-9.555v-54.493C1561.533,296.363,1557.717,286.072,1550.158,278.858
		 M1542.172,325.868v7.917c0,14.09-14.045,24.771-32.619,24.771c-11.484,0-23.889-5.545-23.889-17.662v-0.32
		c0-11.552,10.504-18.417,28.119-18.417C1523.355,322.156,1532.639,323.375,1542.172,325.868"/>
	<path d="M0.637,492.591c0-1.338,0.221-2.818,0.506-3.97l5.927-22.153H1.84l1.338-4.941H8.51l3.021-11.461h5.583l-3.086,11.461
		H25.95l-1.274,4.941H12.725L6.82,488.34c-0.101,0.885-0.221,2.01-0.221,2.756c0,2.685,1.959,3.91,5.172,3.91
		c1.68,0,3.427-0.375,5.512-1.186l-1.432,5.133c-1.946,0.794-3.765,1.14-5.986,1.14C4.416,500.093,0.637,497.487,0.637,492.591"/>
	<path d="M9.863,500.746c-6.069,0-9.863-3.116-9.863-8.155c0-1.244,0.195-2.756,0.533-4.132l5.701-21.335H1.016l1.68-6.238h5.331
		l3.012-11.442h6.919l-3.104,11.442H26.79l-1.624,6.238H13.219l-5.778,21.369c-0.131,1.12-0.209,2.028-0.209,2.603
		c0,2.182,1.537,3.295,4.539,3.295c1.576,0,3.255-0.364,5.283-1.158l1.2-0.468l-1.871,6.656l-0.289,0.128
		C14.04,500.386,12.134,500.746,9.863,500.746 M2.684,465.846h5.203l-6.11,22.944c-0.304,1.245-0.498,2.646-0.498,3.801
		c0,4.304,3.215,6.857,8.584,6.857c2.005,0,3.659-0.278,5.459-0.975l1.011-3.626c-1.668,0.57-3.138,0.813-4.562,0.813
		c-5.069,0-5.818-2.862-5.818-4.565c0-0.634,0.063-1.561,0.236-2.854l6.046-22.396h11.946l0.952-3.663H13.195l3.095-11.477h-4.259
		l-3.024,11.477H3.664L2.684,465.846z"/>
	<path d="M40.058,445.894h5.598l-5.766,21.733c3.411-3.857,7.35-6.895,13.155-6.895c7.28,0,12.104,4.536,12.104,11.7
		c0,1.784-0.461,3.898-0.977,5.882l-5.58,21.092h-5.662l5.758-21.512c0.342-1.219,0.555-2.931,0.555-4.244
		c0-4.951-3.208-7.902-8.475-7.902c-5.879,0-11.738,5.05-13.689,12.229l-5.736,21.429h-5.609L40.058,445.894z"/>
	<path d="M59.073,500.06h-6.962l5.969-22.322c0.296-1.169,0.533-2.835,0.533-4.087c0-4.551-2.933-7.258-7.844-7.258
		c-5.731,0-11.205,4.938-13.08,11.747l-5.856,21.92h-6.936l0.215-0.811L39.6,445.237h6.898l-5.345,20.125
		c2.799-2.744,6.58-5.271,11.892-5.271c7.749,0,12.747,4.833,12.747,12.342c0,1.957-0.548,4.263-0.994,6.055L59.073,500.06z
		 M53.776,498.77h4.318l5.471-20.63c0.434-1.695,0.952-3.881,0.952-5.707c0-6.727-4.502-11.062-11.472-11.062
		c-5.958,0-9.755,3.383-12.692,6.689l-1.807,2.024l6.284-23.551h-4.247L26.565,498.77h4.282l5.597-20.954
		c2.028-7.354,8.026-12.701,14.325-12.701c5.627,0,9.13,3.271,9.13,8.536c0,1.376-0.245,3.143-0.589,4.413L53.776,498.77z"/>
	<path d="M78.516,483.928c0,6.905,4.413,11.457,11.46,11.457c4.904,0,8.26-1.719,11.674-4.443l2.963,3.689
		c-3.794,3.168-8.257,5.664-14.908,5.664c-10.02,0-16.772-6.515-16.772-16.117c0-11.573,9.372-23.445,22.063-23.445
		c9.617,0,14.655,6.564,14.655,14.494c0,2.557-0.505,5.054-1.413,7.408H78.61C78.516,483.072,78.516,483.534,78.516,483.928
		 M103.841,478.063c0.149-0.746,0.271-1.59,0.271-2.837c0-5.224-2.903-9.752-9.448-9.752c-7.457,0-13.111,5.623-15.228,12.589
		H103.841z"/>
	<path d="M89.707,500.948c-10.4,0-17.397-6.749-17.397-16.771c0-11.393,9.306-24.087,22.687-24.087c10.545,0,15.3,7.61,15.3,15.136
		c0,2.537-0.496,5.108-1.462,7.64l-0.149,0.404H79.169c-0.016,0.214-0.016,0.45-0.016,0.657c0,6.561,4.259,10.82,10.816,10.82
		c5.188,0,8.473-2.06,11.284-4.306l0.506-0.407l3.728,4.693l-0.491,0.405C101.771,497.828,97.114,500.948,89.707,500.948
		 M94.997,461.369c-12.63,0-21.415,12.015-21.415,22.809c0,9.257,6.497,15.472,16.125,15.472c6.638,0,10.954-2.642,14.005-5.108
		l-2.159-2.701c-2.872,2.223-6.312,4.186-11.584,4.186c-7.342,0-12.095-4.758-12.095-12.098c0-0.443,0-0.938,0.112-1.432
		l0.128-0.504h29.675c0.808-2.246,1.227-4.521,1.227-6.766C109.018,466.798,103.484,461.369,94.997,461.369 M104.366,478.721H78.56
		l0.255-0.844c2.412-7.919,8.642-13.059,15.848-13.059c7.435,0,10.094,5.371,10.094,10.408c0,1.315-0.132,2.203-0.285,2.981
		L104.366,478.721z M80.327,477.43h22.971c0.107-0.58,0.157-1.3,0.157-2.203c0-4.429-2.298-9.118-8.792-9.118
		C88.289,466.108,82.726,470.525,80.327,477.43"/>
	<polygon points="141.582,461.526 147.39,461.526 149.327,491.721 167.633,461.388 172.34,461.388 174.439,491.721 192.674,461.526 
		198.579,461.526 174.985,499.747 169.996,499.747 167.794,469.804 149.549,499.747 144.604,499.747 	"/>
	<path d="M175.326,500.386h-5.929l-2.097-28.539L149.9,500.386h-5.885l-3.143-39.5h7.116l1.831,28.728l17.446-28.863h5.661
		l2.025,28.898l17.377-28.763h7.393L175.326,500.386z M170.589,499.092h4.034l22.791-36.909h-4.375l-19.083,31.598l-2.213-31.755
		h-3.751l-19.173,31.765l-2.036-31.607h-4.51l2.931,36.909h3.991l19.104-31.327L170.589,499.092z"/>
	<path d="M199.276,483.256c0-11.753,10.159-22.523,22.276-22.523c10.377,0,17.257,7.078,17.257,16.911
		c0,12.079-10.448,22.651-22.313,22.651C206.054,500.295,199.276,493.108,199.276,483.256 M233.066,477.835
		c0-7.646-4.837-12.165-11.884-12.165c-8.726,0-16.231,8.682-16.231,17.479c0,7.684,4.87,12.097,11.874,12.097
		C225.331,495.246,233.066,486.904,233.066,477.835"/>
	<path d="M216.497,500.948c-10.525,0-17.885-7.282-17.885-17.691c0-12.346,10.716-23.178,22.933-23.178
		c10.538,0,17.895,7.232,17.895,17.564C239.439,490.053,228.698,500.948,216.497,500.948 M221.544,461.354
		c-11.524,0-21.636,10.247-21.636,21.903c0,9.668,6.816,16.393,16.588,16.393c11.535,0,21.646-10.271,21.646-22.006
		C238.143,467.903,231.469,461.354,221.544,461.354 M216.825,495.883c-7.611,0-12.509-4.989-12.509-12.735
		c0-9.463,8.032-18.11,16.854-18.11c7.625,0,12.519,5.012,12.519,12.798C233.688,487.274,225.661,495.883,216.825,495.883
		 M221.17,466.313c-8.143,0-15.6,8.038-15.6,16.834c0,7.06,4.327,11.457,11.254,11.457c8.173,0,15.6-7.997,15.6-16.77
		C232.424,470.724,228.113,466.313,221.17,466.313"/>
	<path d="M253.78,461.526h5.657l-2.546,9.897c4.604-6.605,10.478-11.034,18.011-10.553l-1.571,6.079h-0.409
		c-8.31,0-16.586,6.03-19.578,17.505l-4.004,14.951h-5.647L253.78,461.526z"/>
	<path d="M249.82,500.06h-6.946l10.417-39.174h6.98l-1.962,7.606c4.572-5.504,9.765-8.289,15.455-8.289
		c0.372,0,0.785,0.015,1.189,0.047l0.776,0.047l-1.904,7.292h-0.896c-8.814,0-16.256,6.67-18.955,17.028L249.82,500.06z
		 M244.538,498.77h4.316l3.877-14.486c2.861-10.861,10.733-17.91,20.114-17.97l1.245-4.817c-6.165-0.143-11.799,3.322-16.684,10.288
		l-2.025,2.898l3.25-12.5h-4.352L244.538,498.77z"/>
	<polygon points="288.057,445.894 293.669,445.894 279.319,499.406 273.687,499.406 	"/>
	<path d="M279.813,500.06h-6.954l14.725-54.822h6.909l-0.19,0.813L279.813,500.06z M274.511,498.77h4.32l14.009-52.235h-4.282
		L274.511,498.77z"/>
	<path d="M294.948,484.257c0-13.459,10.178-23.544,21.245-23.544c7.792,0,12.175,4.363,14.199,9.402l6.46-24.222h5.654
		l-14.269,53.515h-5.7l1.744-6.443c-3.612,4.129-8.229,7.33-14.318,7.33C301.405,500.295,294.948,493.82,294.948,484.257
		 M328.465,477.43c0-6.632-4.803-11.76-11.769-11.76c-9.009,0-15.855,8.379-15.855,18.051c0,7.097,4.435,11.585,10.76,11.585
		C320.014,495.306,328.465,486.731,328.465,477.43"/>
	<path d="M309.951,500.948c-9.046,0-15.625-7.03-15.625-16.685c0-13.106,9.988-24.185,21.875-24.185
		c8.113,0,12.132,4.563,14.052,8.162l6.096-23.004h6.999l-14.621,54.808h-7.018l1.297-4.799
		C319.046,499.065,314.758,500.948,309.951,500.948 M316.2,461.354c-11.167,0-20.607,10.493-20.607,22.91
		c0,9.062,5.927,15.386,14.358,15.386c5.133,0,9.643-2.339,13.846-7.106l1.815-2.069l-2.231,8.296h4.371l13.929-52.254h-4.331
		l-6.827,25.614l-0.709-1.785C328.449,466.997,324.856,461.354,316.2,461.354 M311.594,495.942c-6.809,0-11.375-4.906-11.375-12.222
		c0-10.299,7.387-18.684,16.477-18.684c7.187,0,12.414,5.202,12.414,12.393C329.109,486.934,320.603,495.942,311.594,495.942
		 M316.696,466.313c-8.391,0-15.195,7.806-15.195,17.407c0,6.55,4.053,10.943,10.094,10.943c8.206,0,16.232-8.541,16.232-17.234
		C327.826,470.988,323.141,466.313,316.696,466.313"/>
	<path d="M373.481,461.526h5.621l-10.22,37.88h-5.567L373.481,461.526z M376.984,446.984h6.464l-1.688,6.247h-6.479L376.984,446.984
		z"/>
	<path d="M369.381,500.045h-6.909l10.504-39.159h6.965L369.381,500.045z M364.144,498.77h4.236l9.889-36.602h-4.311L364.144,498.77z
		 M382.245,453.891h-7.803l2.058-7.547h7.776L382.245,453.891z M376.122,452.592h5.147l1.335-4.971h-5.122L376.122,452.592z"/>
	<path d="M392.228,461.526h5.675l-1.637,6.101c3.463-3.857,7.396-6.895,13.218-6.895c7.313,0,12.08,4.536,12.08,11.7
		c0,1.784-0.498,3.898-0.962,5.882l-5.584,21.092h-5.646l5.766-21.512c0.295-1.219,0.54-2.931,0.54-4.244
		c0-4.951-3.202-7.902-8.519-7.902c-5.863,0-11.723,5.05-13.669,12.229l-5.716,21.429h-5.643L392.228,461.526z"/>
	<path d="M415.497,500.06h-6.931l5.952-22.322c0.314-1.185,0.523-2.85,0.523-4.087c0-4.607-2.875-7.258-7.88-7.258
		c-5.701,0-11.19,4.938-13.049,11.747l-5.83,21.92h-6.995l10.458-39.174h6.988l-1.203,4.488c2.913-2.836,6.644-5.283,11.956-5.283
		c7.715,0,12.705,4.833,12.705,12.342c0,1.878-0.506,4.091-0.952,6.021L415.497,500.06z M410.238,498.77h4.296l5.439-20.63
		c0.443-1.853,0.934-3.975,0.934-5.707c0-6.727-4.487-11.062-11.423-11.062c-5.942,0-9.777,3.383-12.744,6.689l-1.798,1.988
		l2.136-7.866h-4.352l-9.754,36.587h4.318l5.578-20.954c2.013-7.354,8.027-12.701,14.291-12.701c5.642,0,9.16,3.271,9.16,8.536
		c0,1.358-0.24,3.119-0.57,4.413L410.238,498.77z"/>
	<path d="M442.281,508.729l3.119-4.246c1.365,1.109,3.966,1.871,5.796,1.871c3.202,0,6.067-1.651,9.868-7.015l-6.909-37.813h5.908
		l5.305,31.582l20.309-31.582h6.406l-25.935,39.144c-5.359,7.842-9.903,10.674-15.555,10.674
		C447.383,511.344,444.76,510.396,442.281,508.729"/>
	<path d="M450.593,512c-3.164,0-5.898-0.892-8.683-2.759l-0.542-0.359l3.92-5.313l0.518,0.42c1.173,0.967,3.584,1.728,5.39,1.728
		c3.192,0,5.865-1.886,9.178-6.512l-6.987-38.297h7.194l5.128,30.452l19.608-30.452h7.955l-26.589,40.101
		C461.349,508.82,456.69,512,450.593,512 M443.203,508.551c2.34,1.469,4.722,2.171,7.39,2.171c5.619,0,9.972-3.037,15.029-10.427
		l25.27-38.112h-4.881l-21.003,32.657l-5.5-32.657h-4.583l6.809,37.314l-0.151,0.207c-3.681,5.191-6.658,7.295-10.386,7.295
		c-1.867,0-4.175-0.675-5.653-1.624L443.203,508.551z"/>
	<path d="M492,483.256c0-11.753,10.198-22.523,22.318-22.523c10.371,0,17.29,7.078,17.29,16.911
		c0,12.079-10.504,22.651-22.342,22.651C498.876,500.295,492,493.108,492,483.256 M525.813,477.835
		c0-7.646-4.829-12.165-11.854-12.165c-8.738,0-16.203,8.682-16.203,17.479c0,7.684,4.817,12.097,11.872,12.097
		C518.101,495.246,525.813,486.904,525.813,477.835"/>
	<path d="M509.265,500.948c-10.545,0-17.916-7.282-17.916-17.691c0-12.346,10.749-23.178,22.962-23.178
		c10.567,0,17.927,7.232,17.927,17.564C532.239,490.053,521.495,500.948,509.265,500.948 M514.312,461.354
		c-11.537,0-21.666,10.247-21.666,21.903c0,9.668,6.83,16.393,16.619,16.393c11.559,0,21.707-10.271,21.707-22.006
		C530.972,468.061,524.115,461.354,514.312,461.354 M509.614,495.883c-7.593,0-12.496-4.989-12.496-12.735
		c0-9.463,8.027-18.11,16.833-18.11c7.606,0,12.506,5.012,12.506,12.798C526.458,487.274,518.441,495.883,509.614,495.883
		 M513.952,466.313c-8.136,0-15.555,8.038-15.555,16.834c0,7.06,4.3,11.457,11.217,11.457c8.154,0,15.577-7.997,15.577-16.77
		C525.191,470.724,520.876,466.313,513.952,466.313"/>
	<path d="M539.486,488.481c0-1.75,0.439-3.864,0.952-5.848l5.564-21.107h5.619l-5.792,21.464c-0.281,1.267-0.514,3.04-0.514,4.225
		c0,5.021,3.266,7.981,8.428,7.981c5.887,0,11.825-5.099,13.673-12.36l5.801-21.31h5.633l-10.141,37.88h-5.625l1.668-6.174
		c-3.445,3.895-7.454,6.965-13.25,6.965C544.251,500.197,539.486,495.694,539.486,488.481"/>
	<path d="M551.501,500.839c-7.685,0-12.656-4.847-12.656-12.357c0-1.548,0.311-3.497,0.967-6.001l5.69-21.572h6.948l-5.998,22.239
		c-0.282,1.308-0.48,2.992-0.48,4.087c0,4.581,2.913,7.318,7.771,7.318c5.721,0,11.336-5.092,13.069-11.874l5.919-21.771h6.936
		l-10.476,39.137h-6.946l1.215-4.537C560.633,498.267,556.847,500.839,551.501,500.839 M546.486,462.183l-5.441,20.608
		c-0.606,2.385-0.918,4.255-0.918,5.69c0,6.843,4.361,11.079,11.374,11.079c5.988,0,9.804-3.416,12.773-6.753l1.8-2.038l-2.145,8
		h4.292L578,462.183h-4.305l-5.657,20.841c-1.867,7.294-8.018,12.814-14.294,12.814c-5.575,0-9.055-3.307-9.055-8.604
		c0-1.171,0.222-2.971,0.515-4.378l5.581-20.674H546.486z"/>
	<path d="M591.511,461.526h5.63l-2.515,9.897c4.574-6.605,10.434-11.034,18.025-10.553l-1.619,6.079h-0.39
		c-8.292,0-16.571,6.03-19.593,17.505l-3.996,14.951h-5.662L591.511,461.526z"/>
	<path d="M587.557,500.06h-7.002l10.454-39.174h6.943l-1.924,7.592c4.871-5.876,10.394-8.639,16.65-8.228l0.783,0.047l-1.931,7.292
		h-0.88c-8.818,0-16.25,6.688-18.971,17.028L587.557,500.06z M582.24,498.77h4.318l3.865-14.486
		c2.869-10.861,10.756-17.91,20.126-17.97l1.279-4.817c-6.198-0.125-11.851,3.322-16.681,10.288l-2.043,2.916l3.221-12.518h-4.323
		L582.24,498.77z"/>
	<path d="M647.241,445.894h5.593l-5.825,21.733c3.46-3.857,7.412-6.895,13.189-6.895c7.363,0,12.139,4.536,12.139,11.7
		c0,1.784-0.473,3.898-0.964,5.882l-5.572,21.092h-5.657l5.726-21.512c0.39-1.219,0.604-2.931,0.604-4.244
		c0-4.951-3.238-7.902-8.541-7.902c-5.874,0-11.738,5.05-13.713,12.229l-5.699,21.429h-5.615L647.241,445.894z"/>
	<path d="M666.285,500.06h-6.96l5.919-22.304c0.345-1.14,0.592-2.774,0.592-4.105c0-4.551-2.958-7.258-7.904-7.258
		c-5.72,0-11.21,4.938-13.084,11.747l-5.841,21.92h-6.95l0.237-0.811l14.448-54.012h6.936l-5.406,20.125
		c2.905-2.824,6.633-5.271,11.926-5.271c7.761,0,12.778,4.833,12.778,12.342c0,1.919-0.522,4.243-0.979,6.055L666.285,500.06z
		 M660.978,498.77h4.33l5.447-20.63c0.431-1.695,0.925-3.923,0.925-5.707c0-6.824-4.393-11.062-11.482-11.062
		c-5.93,0-9.735,3.383-12.707,6.689l-1.798,2.01l6.316-23.536h-4.269l-14.015,52.235h4.301l5.582-20.954
		c2.025-7.354,8.045-12.701,14.324-12.701c5.677,0,9.181,3.271,9.181,8.536c0,1.474-0.265,3.232-0.64,4.446L660.978,498.77z"/>
	<path d="M677.982,489.723c0-8.506,7.057-13.698,16.849-13.698c5.049,0,9.789,1.042,13.388,2.039l0.281-0.899
		c0.252-1.063,0.468-2.452,0.468-3.491c0-4.802-3.366-7.67-10.183-7.67c-4.014,0-7.329,0.795-10.726,2.024l-0.985-4.754
		c3.794-1.48,7.697-2.324,12.571-2.324c9.542,0,14.906,4.477,14.906,11.771c0,1.576-0.33,3.457-0.719,5.175l-5.736,21.513h-5.605
		l1.589-5.926c-3.468,4.005-8.161,6.715-14.191,6.715C683.544,500.197,677.982,496.51,677.982,489.723 M706.584,484.579l0.686-2.677
		c-3.25-0.922-7.528-1.705-12.255-1.705c-6.617,0-11.254,3.654-11.254,8.908c0,4.003,3.07,6.624,7.959,6.624
		C698.12,495.729,704.718,491.188,706.584,484.579"/>
	<path d="M689.889,500.839c-7.397,0-12.563-4.565-12.563-11.116c0-8.584,7.047-14.355,17.516-14.355
		c3.934,0,8.155,0.642,12.947,1.917l0.104-0.313c0.255-1.057,0.434-2.398,0.434-3.299c0-5.803-5.169-7.033-9.532-7.033
		c-3.514,0-6.651,0.594-10.514,1.995l-0.701,0.236l-1.234-5.998l0.511-0.207c4.214-1.619,8.146-2.351,12.788-2.351
		c9.725,0,15.536,4.622,15.536,12.387c0,1.485-0.255,3.381-0.734,5.35l-5.849,21.993h-6.924l1.15-4.339
		C699.169,499.122,694.841,500.839,689.889,500.839 M694.841,476.661c-9.71,0-16.244,5.252-16.244,13.062
		c0,6.764,5.848,9.838,11.292,9.838c5.364,0,9.962-2.183,13.701-6.5l1.81-2.074l-2.077,7.783h4.289l5.594-21.032
		c0.443-1.841,0.687-3.647,0.687-5.035c0-7.059-5.203-11.097-14.246-11.097c-4.286,0-7.959,0.638-11.82,2.073l0.712,3.505
		c3.704-1.278,6.812-1.821,10.258-1.821c6.968,0,10.808,2.942,10.808,8.311c0,1.01-0.181,2.429-0.466,3.645l-0.483,1.53
		l-0.604-0.162C703.131,477.317,698.812,476.661,694.841,476.661 M691.712,496.348c-5.212,0-8.584-2.834-8.584-7.242
		c0-5.628,4.876-9.543,11.887-9.543c5.223,0,9.632,0.935,12.451,1.714l0.608,0.172l-0.875,3.271
		C705.322,491.378,698.681,496.348,691.712,496.348 M695.015,480.841c-6.254,0-10.629,3.397-10.629,8.265
		c0,3.676,2.825,5.964,7.327,5.964c6.411,0,12.532-4.581,14.245-10.674l0.54-2.039C703.769,481.634,699.742,480.841,695.015,480.841
		"/>
	<path d="M730.147,461.526h5.646l-1.605,6.101c3.447-3.857,7.424-6.895,13.172-6.895c7.343,0,12.098,4.536,12.098,11.7
		c0,1.784-0.421,3.898-0.954,5.882l-5.559,21.092h-5.624l5.726-21.512c0.359-1.219,0.565-2.931,0.565-4.244
		c0-4.951-3.198-7.902-8.48-7.902c-5.875,0-11.708,5.05-13.748,12.229l-5.691,21.429h-5.616L730.147,461.526z"/>
	<path d="M753.42,500.06h-6.946l5.952-22.322c0.323-1.121,0.548-2.792,0.548-4.087c0-4.551-2.931-7.258-7.843-7.258
		c-5.672,0-11.188,4.938-13.125,11.769l-5.816,21.898h-6.935l10.419-39.174h6.969l-1.193,4.488
		c2.828-2.741,6.611-5.283,11.908-5.283c7.73,0,12.735,4.833,12.735,12.342c0,1.566-0.33,3.482-0.982,6.055L753.42,500.06z
		 M748.158,498.77h4.281l5.448-20.63c0.618-2.396,0.93-4.271,0.93-5.707c0-6.824-4.395-11.062-11.458-11.062
		c-5.919,0-9.736,3.383-12.691,6.689l-1.788,1.988l2.096-7.866h-4.307l-9.764,36.587h4.306l5.548-20.954
		c2.122-7.354,8.153-12.701,14.374-12.701c5.646,0,9.141,3.271,9.141,8.536c0,1.436-0.256,3.2-0.619,4.446L748.158,498.77z"/>
	<path d="M767.419,484.257c0-13.459,10.199-23.544,21.231-23.544c7.81,0,12.141,4.363,14.235,9.402l6.485-24.222h5.575
		l-14.309,53.515h-5.558l1.669-6.443c-3.636,4.129-8.237,7.33-14.296,7.33C773.853,500.295,767.419,493.82,767.419,484.257
		 M800.918,477.43c0-6.632-4.787-11.76-11.703-11.76c-9.015,0-15.841,8.379-15.841,18.051c0,7.097,4.346,11.585,10.662,11.585
		C792.502,495.306,800.918,486.731,800.918,477.43"/>
	<path d="M782.442,500.948c-9.068,0-15.678-7.03-15.678-16.685c0-13.106,10.024-24.185,21.895-24.185
		c6.331,0,11.262,2.898,14.07,8.185l6.136-23.026h6.905l-14.65,54.808h-6.905l1.294-4.837
		C791.522,499.065,787.233,500.948,782.442,500.948 M788.659,461.354c-11.18,0-20.605,10.493-20.605,22.91
		c0,9.062,5.916,15.386,14.389,15.386c5.089,0,9.623-2.339,13.83-7.106l1.762-2.04l-2.134,8.267h4.238l13.966-52.254h-4.253
		l-6.838,25.58l-0.716-1.729C800.592,466.254,796.85,461.354,788.659,461.354 M784.039,495.942c-6.771,0-11.3-4.906-11.3-12.222
		c0-10.299,7.375-18.684,16.475-18.684c7.152,0,12.342,5.202,12.342,12.393C801.556,486.934,793.049,495.942,784.039,495.942
		 M789.214,466.313c-8.373,0-15.203,7.806-15.203,17.407c0,6.662,3.929,10.943,10.028,10.943c8.192,0,16.257-8.541,16.257-17.234
		C800.296,470.988,795.627,466.313,789.214,466.313"/>
</g>
</svg>
